<svg width="9" height="35" viewBox="0 0 9 35" fill="none" xmlns="http://www.w3.org/2000/svg">
<rect x="1" y="21" width="1" height="1" fill="#7AD663"/>
<rect x="1" y="20" width="1" height="1" fill="#7AD663"/>
<rect x="1" y="19" width="1" height="1" fill="#7CFF79"/>
<rect x="1" y="18" width="1" height="1" fill="#E37E07"/>
<rect x="1" y="17" width="1" height="1" fill="#E37E07"/>
<rect x="2" y="16" width="1" height="1" fill="#E37E07"/>
<rect x="3" y="17" width="1" height="1" fill="#FFC700"/>
<rect x="3" y="18" width="1" height="1" fill="#FFC700"/>
<rect x="3" y="19" width="1" height="1" fill="#7AD663"/>
<rect x="3" y="20" width="1" height="1" fill="#7AD663"/>
<rect x="3" y="21" width="1" height="1" fill="#7AD663"/>
<rect x="2" y="21" width="1" height="1" fill="#7AD663"/>
<rect x="2" y="20" width="1" height="1" fill="#7CFF79"/>
<rect x="2" y="19" width="1" height="1" fill="black"/>
<rect x="2" y="18" width="1" height="1" fill="#FFC700"/>
<rect x="2" y="17" width="1" height="1" fill="#FFC700"/>
<rect x="5" y="17" width="1" height="1" fill="#E37E07"/>
<rect x="5" y="18" width="1" height="1" fill="#FFC700"/>
<rect x="5" y="19" width="1" height="1" fill="black"/>
<rect x="5" y="20" width="1" height="1" fill="#7CFF79"/>
<rect x="5" y="21" width="1" height="1" fill="#7AD663"/>
<rect x="6" y="21" width="1" height="1" fill="#7AD663"/>
<rect x="6" y="20" width="1" height="1" fill="#7AD663"/>
<rect x="6" y="19" width="1" height="1" fill="#7CFF79"/>
<rect x="6" y="18" width="1" height="1" fill="#FFC700"/>
<rect x="7" y="18" width="1" height="1" fill="#FFC700"/>
<rect x="8" y="18" width="1" height="1" fill="#FFC700"/>
<rect x="6" y="17" width="1" height="1" fill="#FFC700"/>
<rect x="3" y="16" width="1" height="1" fill="#FFC700"/>
<rect x="4" y="16" width="1" height="1" fill="#FFC700"/>
<rect x="4" y="17" width="1" height="1" fill="#FFC700"/>
<rect x="4" y="18" width="1" height="1" fill="#FFC700"/>
<rect x="4" y="19" width="1" height="1" fill="#7AD663"/>
<rect x="4" y="20" width="1" height="1" fill="#7AD663"/>
<rect x="4" y="21" width="1" height="1" fill="#7AD663"/>
<rect x="5" y="16" width="1" height="1" fill="#FFC700"/>
<rect x="5" y="15" width="1" height="1" fill="#7AD663"/>
<rect width="1" height="1" transform="matrix(-1 0 0 1 3 15)" fill="#7AD663"/>
<rect x="6" y="15" width="1" height="1" fill="#519E2D"/>
<rect x="6" y="16" width="1" height="1" fill="#519E2D"/>
<rect width="1" height="1" transform="matrix(-1 0 0 1 2 15)" fill="#519E2D"/>
<rect width="1" height="1" transform="matrix(-1 0 0 1 2 16)" fill="#519E2D"/>
<rect x="6" y="14" width="1" height="1" fill="#519E2D"/>
<rect width="1" height="1" transform="matrix(-1 0 0 1 2 14)" fill="#519E2D"/>
<rect x="7" y="15" width="1" height="1" fill="#7AD663"/>
<rect x="7" y="16" width="1" height="1" fill="#7AD663"/>
<rect x="7" y="17" width="1" height="1" fill="#7AD663"/>
<rect width="1" height="1" transform="matrix(-1 0 0 1 1 15)" fill="#7AD663"/>
<rect width="1" height="1" transform="matrix(-1 0 0 1 1 16)" fill="#7AD663"/>
<rect width="1" height="1" transform="matrix(-1 0 0 1 1 17)" fill="#7AD663"/>
<rect x="7" y="14" width="1" height="1" fill="#9EF97E"/>
<rect width="1" height="1" transform="matrix(-1 0 0 1 1 14)" fill="#9EF97E"/>
<rect x="6" y="13" width="1" height="1" fill="#9EF97E"/>
<rect width="1" height="1" transform="matrix(-1 0 0 1 2 13)" fill="#9EF97E"/>
<rect x="5" y="14" width="1" height="1" fill="#9EF97E"/>
<rect width="1" height="1" transform="matrix(-1 0 0 1 3 14)" fill="#9EF97E"/>
</svg>
