<svg width="10" height="35" viewBox="0 0 10 35" fill="none" xmlns="http://www.w3.org/2000/svg">
<rect x="2" y="21" width="1" height="1" fill="#1A1A1A"/>
<rect x="2" y="20" width="1" height="1" fill="#1A1A1A"/>
<rect x="2" y="19" width="1" height="1" fill="#1A1A1A"/>
<rect x="2" y="18" width="1" height="1" fill="#3F3D34" fill-opacity="0.866667"/>
<rect x="2" y="17" width="1" height="1" fill="#100E0D"/>
<rect x="2" y="16" width="1" height="1" fill="#100E0D"/>
<rect x="2" y="15" width="1" height="1" fill="#2B2926"/>
<rect x="3" y="16" width="1" height="1" fill="#1A1A1A"/>
<rect x="4" y="17" width="1" height="1" fill="#1A1A1A"/>
<rect x="4" y="18" width="1" height="1" fill="#2B2926"/>
<rect x="4" y="19" width="1" height="1" fill="#1A1817"/>
<rect x="4" y="20" width="1" height="1" fill="#3F3D34"/>
<rect x="4" y="21" width="1" height="1" fill="#3F3D34" fill-opacity="0.866667"/>
<rect x="3" y="21" width="1" height="1" fill="#1A1A1A"/>
<rect x="3" y="20" width="1" height="1" fill="#35342E"/>
<rect x="3" y="19" width="1" height="1" fill="#3F3D34"/>
<rect x="3" y="18" width="1" height="1" fill="#F6F6F6"/>
<rect x="3" y="17" width="1" height="1" fill="#3F3D34" fill-opacity="0.866667"/>
<rect x="6" y="17" width="1" height="1" fill="#3F3D34" fill-opacity="0.866667"/>
<rect x="6" y="18" width="1" height="1" fill="#F6F6F6"/>
<rect x="6" y="19" width="1" height="1" fill="#3F3D34"/>
<rect x="6" y="20" width="1" height="1" fill="#35342E"/>
<rect x="6" y="21" width="1" height="1" fill="#1A1A1A"/>
<rect x="7" y="21" width="1" height="1" fill="#1A1A1A"/>
<rect x="7" y="20" width="1" height="1" fill="#1A1A1A"/>
<rect x="7" y="19" width="1" height="1" fill="#1A1A1A"/>
<rect x="7" y="18" width="1" height="1" fill="#3F3D34" fill-opacity="0.866667"/>
<rect x="7" y="17" width="1" height="1" fill="#100E0D"/>
<rect x="7" y="16" width="1" height="1" fill="#100E0D"/>
<rect x="4" y="16" width="1" height="1" fill="#1A1A1A"/>
<rect x="5" y="16" width="1" height="1" fill="#1A1A1A"/>
<rect x="5" y="17" width="1" height="1" fill="#1A1A1A"/>
<rect x="5" y="18" width="1" height="1" fill="#2B2926"/>
<rect x="5" y="19" width="1" height="1" fill="#1A1817"/>
<rect x="5" y="20" width="1" height="1" fill="#3F3D34"/>
<rect x="5" y="21" width="1" height="1" fill="#3F3D34" fill-opacity="0.866667"/>
<rect x="6" y="16" width="1" height="1" fill="#1A1A1A"/>
<rect x="7" y="15" width="1" height="1" fill="#2B2926"/>
<rect x="8" y="15" width="1" height="1" fill="#2B2926"/>
<rect x="9" y="16" width="1" height="1" fill="#2B2926"/>
<rect x="9" y="17" width="1" height="1" fill="#2B2926"/>
<rect x="8" y="18" width="1" height="1" fill="#2B2926"/>
<rect x="1" y="18" width="1" height="1" fill="#2B2926"/>
<rect x="8" y="17" width="1" height="1" fill="#2B2926"/>
<rect x="8" y="16" width="1" height="1" fill="#2B2926"/>
<rect x="1" y="15" width="1" height="1" fill="#2B2926"/>
<rect y="16" width="1" height="1" fill="#2B2926"/>
<rect y="17" width="1" height="1" fill="#2B2926"/>
<rect x="1" y="16" width="1" height="1" fill="#2B2926"/>
<rect x="1" y="17" width="1" height="1" fill="#2B2926"/>
</svg>
