<svg xmlns="http://www.w3.org/2000/svg" viewBox="0 0 38 22" fill="none">
  <path
    d="M27.78 5.15C22.59 6.36 19.7 9.48 19.13 9.48c-.57 0-3.45-3.12-8.65-4.34-3.78-.88-6.34 2.55-3.84 7.04 1.55 3.49 3.13 4.82 5.6 4.82 1.95 0 3.16-1.02 4.07-1.62.69-.45 1.73-1.27 2.82-1.27 1.1 0 2.14.82 2.83 1.27.9.6 2.11 1.62 4.07 1.62 2.46 0 4.05-1.32 5.59-4.81 1.89-4.69-.06-7.93-3.84-7.05Zm-10.81 7.33c-.49.71-3.82 2.83-5.72 1.6-1.9-1.22-3.68-5.34-2.46-6.23 1.22-.89 9.6 2.83 8.18 4.63Zm10.24 1.6c-1.9 1.22-5.43-.91-5.91-1.61-1.22-1.8 7.16-5.51 8.38-4.62 1.22.89-.56 5-2.47 6.23Z"
    fill="white"
  />
</svg>
