<svg xmlns="http://www.w3.org/2000/svg" width="160" height="37" viewBox="0 0 160 37" fill="none">
  <path d="M117.444 27.6197V26.3361H118.786V27.6197H117.444ZM117.455 34.061V28.2965H118.762V34.061H117.455Z" fill="white"/>
  <path d="M106.857 34.061V28.2965H108.164L108.117 29.8134H108.129C108.385 28.8216 109.085 28.2031 110.136 28.2031C111.256 28.2031 111.979 28.7866 112.119 29.7201H112.131C112.341 28.7866 113.041 28.2031 114.138 28.2031C115.422 28.2031 116.157 29.0316 116.157 30.3852V34.061H114.85V30.677C114.85 29.8368 114.442 29.3234 113.66 29.3234C112.75 29.3234 112.166 30.0002 112.166 31.2021V34.061H110.859V30.6536C110.859 29.8368 110.427 29.3234 109.646 29.3234C108.759 29.3234 108.164 30.0118 108.164 31.2487V34.061H106.857Z" fill="white"/>
  <path d="M102.198 34.1543C100.879 34.1543 100.004 33.5242 100.004 32.404C100.004 31.5288 100.623 30.8403 102.163 30.8403H104.298V30.4319C104.298 29.5684 103.797 29.1833 102.781 29.1833C101.895 29.1833 101.393 29.5217 101.393 30.1635C101.393 30.1985 101.393 30.2919 101.404 30.3852H100.203C100.191 30.3035 100.179 30.1518 100.179 30.0468C100.179 28.8916 101.183 28.2031 102.828 28.2031C104.578 28.2031 105.605 29.0316 105.605 30.5486V34.061H104.298C104.322 33.7809 104.357 33.2558 104.357 32.789H104.345C104.158 33.6409 103.47 34.1543 102.198 34.1543ZM102.466 33.1741C103.598 33.1741 104.298 32.6257 104.298 31.7388V31.6338H102.28C101.533 31.6338 101.206 31.8905 101.206 32.3456C101.206 32.8707 101.673 33.1741 102.466 33.1741Z" fill="white"/>
  <path d="M97.4788 27.6197V26.3361H98.8207V27.6197H97.4788ZM97.4904 34.061V28.2965H98.7974V34.061H97.4904Z" fill="white"/>
  <path d="M87.4757 34.061V26.3828H89.7162L91.7699 32.1823H91.7933L93.8587 26.3828H96.0408V34.061H94.6405L94.6755 27.4797H94.6522L92.3067 34.061H91.1398L88.7943 27.4797H88.771L88.7943 34.061H87.4757Z" fill="white"/>
  <path d="M81.8468 34.061V26.3828H83.2354V34.061H81.8468Z" fill="white"/>
  <path d="M74.9624 34.1661C72.6986 34.1661 71.7417 32.7541 71.7417 30.2686C71.7417 27.7948 72.8503 26.2778 74.9624 26.2778C76.7127 26.2778 77.6696 27.1763 77.6696 28.635C77.6696 28.775 77.6579 28.9384 77.6462 29.0434H76.4093C76.421 28.9267 76.4326 28.81 76.4326 28.6816C76.4326 27.9231 75.9309 27.4214 74.9857 27.4214C73.7021 27.4214 73.107 28.4599 73.107 30.1869V30.8054H73.1303C73.282 30.0352 74.0405 29.5685 75.2657 29.5685C77.0161 29.5685 77.9263 30.362 77.9263 31.6689C77.9263 33.2092 76.7944 34.1661 74.9624 34.1661ZM74.974 33.0458C75.9659 33.0458 76.596 32.5091 76.596 31.6689C76.596 30.9571 76.0242 30.537 74.9857 30.537C73.8888 30.537 73.212 31.0504 73.212 31.7389C73.3053 32.5091 73.9822 33.0458 74.974 33.0458Z" fill="white"/>
  <path d="M64.8741 34.0611C64.8741 32.3574 65.0959 31.8323 67.1029 30.8987C68.8299 30.0819 69.18 29.6385 69.18 28.7633C69.18 27.9582 68.6432 27.4214 67.7447 27.4214C66.7179 27.4214 66.1461 28.0515 66.1461 29.1367C66.1461 29.3934 66.1694 29.6852 66.2044 29.9069H64.9792C64.9442 29.7318 64.9208 29.4051 64.9208 29.0434C64.9208 27.3864 65.8894 26.2778 67.7797 26.2778C69.5301 26.2778 70.5453 27.293 70.5453 28.6933C70.5453 29.8835 70.0202 30.677 67.9431 31.6456C66.4961 32.3107 66.3561 32.5324 66.3561 32.9175H70.6853V34.0611H64.8741Z" fill="white"/>
  <path d="M60.7492 34.1661C58.6954 34.1661 57.6569 32.6024 57.6569 30.1869C57.6569 27.7715 58.7421 26.2778 60.7492 26.2778C62.7562 26.2778 63.8414 27.7715 63.8414 30.1869C63.8414 32.6024 62.8029 34.1661 60.7492 34.1661ZM60.7492 33.0225C61.8927 33.0225 62.4878 31.9606 62.4878 30.1869C62.4878 28.4483 61.8811 27.4214 60.7492 27.4214C59.6173 27.4214 59.0105 28.4483 59.0105 30.1869C59.0105 31.9606 59.5939 33.0225 60.7492 33.0225Z" fill="white"/>
  <path d="M50.7899 34.061C50.7899 32.3573 51.0116 31.8322 53.0187 30.8987C54.7457 30.0818 55.0958 29.6384 55.0958 28.7632C55.0958 27.9581 54.559 27.4213 53.6605 27.4213C52.6336 27.4213 52.0618 28.0514 52.0618 29.1367C52.0618 29.3934 52.0852 29.6851 52.1202 29.9068H50.8949C50.8599 29.7318 50.8366 29.405 50.8366 29.0433C50.8366 27.3863 51.8051 26.2777 53.6955 26.2777C55.4459 26.2777 56.4611 27.2929 56.4611 28.6932C56.4611 29.8835 55.936 30.677 53.8589 31.6455C52.4119 32.3106 52.2719 32.5323 52.2719 32.9174H56.6011V34.061H50.7899Z" fill="white"/>
  <path d="M45.0818 35.6713V34.9945C45.6186 34.9478 45.8403 34.6677 45.8403 34.0959V34.0609H45.2918V32.544H46.6104V33.6408C46.6104 35.0178 46.097 35.5896 45.0818 35.6713Z" fill="white"/>
  <path d="M38.9498 34.061C39.4982 31.3538 40.7701 29.2417 42.5905 27.5964V27.5847H37.7595V26.3828H44.0491V27.503C41.937 29.5334 41.0502 31.4238 40.5484 34.061H38.9498Z" fill="white"/>
  <path d="M34.3182 31.1905V30.327H36.9904V31.1905H34.3182Z" fill="white"/>
  <path d="M30.4846 34.166C28.6292 34.166 27.474 33.3492 27.474 32.0423C27.474 31.9256 27.4857 31.8089 27.4973 31.7389H28.7576C28.7459 31.8322 28.7459 31.9022 28.7459 31.9489C28.7459 32.6024 29.4227 33.0225 30.4613 33.0225C31.4415 33.0225 32.0483 32.3807 32.0483 31.4472C32.0483 30.572 31.4298 30.0352 30.4263 30.0352C29.6561 30.0352 29.0493 30.3736 28.8509 30.922L27.579 30.7937L27.8941 26.3828H32.9468V27.5264H29.026L28.8276 30.0702L28.8509 30.0819C29.0843 29.4634 29.7961 29.0783 30.8113 29.0783C32.4683 29.0783 33.4135 30.0002 33.4135 31.4472C33.4135 33.0808 32.2816 34.166 30.4846 34.166Z" fill="white"/>
  <path d="M19.4041 36.4998C18.9607 36.4998 18.6106 36.4064 18.4473 36.3481V35.3212C18.6106 35.3679 18.879 35.4379 19.1708 35.4379C19.7776 35.4379 20.0576 35.1345 20.4894 34.061H20.1743L17.6771 28.2965H19.1824L21.0145 32.7424H21.0378L22.6598 28.2965H23.9434L21.7496 34.1777C21.1078 35.9047 20.5477 36.4998 19.4041 36.4998Z" fill="white"/>
  <path d="M13.7458 34.1542C12.4272 34.1542 11.552 33.5241 11.552 32.4039C11.552 31.5287 12.1705 30.8402 13.7108 30.8402H15.8462V30.4318C15.8462 29.5683 15.3444 29.1832 14.3292 29.1832C13.4424 29.1832 12.9406 29.5216 12.9406 30.1634C12.9406 30.1984 12.9406 30.2918 12.9523 30.3851H11.7504C11.7387 30.3035 11.727 30.1518 11.727 30.0467C11.727 28.8915 12.7306 28.203 14.3759 28.203C16.1263 28.203 17.1531 29.0315 17.1531 30.5485V34.0609H15.8462C15.8695 33.7808 15.9046 33.2557 15.9046 32.789H15.8929C15.7062 33.6408 15.0177 34.1542 13.7458 34.1542ZM14.0142 33.174C15.1461 33.174 15.8462 32.6256 15.8462 31.7387V31.6337H13.8275C13.0806 31.6337 12.7539 31.8904 12.7539 32.3455C12.7539 32.8706 13.2207 33.174 14.0142 33.174Z" fill="white"/>
  <path d="M1.74634 34.061V26.3828H3.98679L6.04054 32.1823H6.06388L8.1293 26.3828H10.3114V34.061H8.91112L8.94613 27.4797H8.92279L6.57732 34.061H5.41041L3.06494 27.4797H3.0416L3.06494 34.061H1.74634Z" fill="white"/>
  <path d="M151.405 17.8031C146.583 17.8031 143.675 15.6284 143.628 11.9408H148.592C148.663 13.4064 149.679 14.281 151.405 14.281C153.225 14.281 154.289 13.6191 154.289 12.5082C154.289 9.38792 143.628 13.2882 143.628 5.55855C143.628 2.39105 146.488 0.5 151.31 0.5C156.156 0.5 159.04 2.81653 159.087 6.76409H154.123C154.076 5.06215 152.989 4.02208 151.216 4.02208C149.112 4.02208 148.356 4.80213 148.356 5.74766C148.356 9.08063 159.253 5.84221 159.253 11.9408C159.253 15.6284 156.345 17.8031 151.405 17.8031Z" fill="white"/>
  <path d="M133.423 17.8032C128.412 17.8032 125.457 14.8248 125.457 9.8135V0.949219H130.421V9.8135C130.421 11.9882 131.532 13.3119 133.423 13.3119C135.291 13.3119 136.402 11.9882 136.402 9.8135V0.949219H141.366V9.8135C141.366 14.8248 138.411 17.8032 133.423 17.8032Z" fill="white"/>
  <path d="M115.347 17.8031C110.524 17.8031 107.617 15.6284 107.57 11.9408H112.534C112.605 13.4064 113.621 14.281 115.347 14.281C117.167 14.281 118.23 13.6191 118.23 12.5082C118.23 9.38792 107.57 13.2882 107.57 5.55855C107.57 2.39105 110.43 0.5 115.252 0.5C120.098 0.5 122.982 2.81653 123.029 6.76409H118.065C118.018 5.06215 116.93 4.02208 115.158 4.02208C113.054 4.02208 112.297 4.80213 112.297 5.74766C112.297 9.08063 123.194 5.84221 123.194 11.9408C123.194 15.6284 120.287 17.8031 115.347 17.8031Z" fill="white"/>
  <path d="M89.3986 8.53706C89.3986 3.52578 92.3533 0.571022 97.3646 0.571022C102.352 0.571022 105.307 3.52578 105.307 8.53706V17.425H100.343V8.53706C100.343 6.36235 99.232 5.06226 97.3646 5.06226C95.4736 5.06226 94.3626 6.36235 94.3626 8.53706V17.425H89.3986V8.53706Z" fill="white"/>
  <path d="M72.5985 0.878181H86.9468V4.40026H77.5625V7.37866H86.4268V10.9007H77.5625V13.9028H87.1359V17.4249H72.5985V0.878181Z" fill="white"/>
  <path d="M62.4879 17.8031C57.6657 17.8031 54.7582 15.6284 54.7109 11.9408H59.6749C59.7459 13.4064 60.7623 14.281 62.4879 14.281C64.308 14.281 65.3717 13.6191 65.3717 12.5082C65.3717 9.38792 54.7109 13.2882 54.7109 5.55855C54.7109 2.39105 57.5711 0.5 62.3933 0.5C67.2391 0.5 70.123 2.81653 70.1702 6.76409H65.2063C65.159 5.06215 64.0716 4.02208 62.2988 4.02208C60.195 4.02208 59.4386 4.80213 59.4386 5.74766C59.4386 9.08063 70.3357 5.84221 70.3357 11.9408C70.3357 15.6284 67.4282 17.8031 62.4879 17.8031Z" fill="white"/>
  <path d="M36.5398 8.53706C36.5398 3.52578 39.4946 0.571022 44.5058 0.571022C49.4935 0.571022 52.4482 3.52578 52.4482 8.53706V17.425H47.4842V8.53706C47.4842 6.36235 46.3732 5.06226 44.5058 5.06226C42.6148 5.06226 41.5038 6.36235 41.5038 8.53706V17.425H36.5398V8.53706Z" fill="white"/>
  <path d="M26.4534 17.8032C21.5603 17.8032 18.6528 15.0139 18.6528 10.2626V8.11158C18.6528 3.36032 21.5603 0.571022 26.4534 0.571022C31.3701 0.571022 34.2776 3.36032 34.2776 8.11158V10.2626C34.2776 15.0139 31.3701 17.8032 26.4534 17.8032ZM23.6168 10.2626C23.6168 12.3901 24.6805 13.6429 26.4534 13.6429C28.2499 13.6429 29.3136 12.3901 29.3136 10.2626V8.11158C29.3136 5.98415 28.2499 4.73133 26.4534 4.73133C24.6805 4.73133 23.6168 5.98415 23.6168 8.11158V10.2626Z" fill="white"/>
  <path d="M8.56583 17.8032C3.67274 17.8032 0.765259 15.0139 0.765259 10.2626V8.11158C0.765259 3.36032 3.67274 0.571022 8.56583 0.571022C13.4826 0.571022 16.39 3.36032 16.39 8.11158H11.426C11.426 5.98415 10.3623 4.73133 8.56583 4.73133C6.79297 4.73133 5.72926 5.98415 5.72926 8.11158V10.2626C5.72926 12.3901 6.79297 13.6429 8.56583 13.6429C10.3623 13.6429 11.426 12.3901 11.426 10.2626H16.39C16.39 15.0139 13.4826 17.8032 8.56583 17.8032Z" fill="white"/>
</svg>
